<?xml version="1.0" encoding="utf-8"?>
<!-- Generator: Adobe Illustrator 19.0.0, SVG Export Plug-In . SVG Version: 6.00 Build 0)  -->
<svg version="1.1" xmlns="http://www.w3.org/2000/svg" xmlns:xlink="http://www.w3.org/1999/xlink" x="0px" y="0px"
    viewBox="0 0 2742 1849.1" style="enable-background:new 0 0 2742 1849.1;" xml:space="preserve">
    <style type="text/css">
        .st0 {
            fill: #8B5E3C;
        }

        .st1 {
            fill: #A97C50;
        }

        .st2 {
            fill: #754C29;
        }

        .st3 {
            fill: #5E5F5F;
        }

        .st4 {
            fill: #DEF1F3;
        }

        .st5 {
            fill: none;
            stroke: #A7A9AC;
            stroke-miterlimit: 10;
        }

        .st6 {
            fill: none;
        }

        .st7 {
            fill: #E8E8E8;
        }

        .st8 {
            fill: #A5A4A4;
        }

        .st9 {
            fill: #D1D3D4;
        }

        .st10 {
            fill: #BCBEC0;
        }

        .st11 {
            fill: #E6E7E8;
        }

        .st12 {
            fill: #6D6E71;
        }

        .st13 {
            fill: #3A3A3A;
        }
    </style>
    <g id="Desk">
        <polygon id="XMLID_4_" class="st0" points="8,825.1 8,1849.7 884.1,1849.7 884.1,988.4 2636.3,988.4 2636.3,1849.7 2735.3,1849.7 
		2735.3,825.1 	" />
        <rect id="XMLID_1_" x="45.1" y="988.4" class="st1" width="794.9" height="242.5" />
        <ellipse id="XMLID_2_" class="st2" cx="450.1" cy="1117.1" rx="32.7" ry="32.2" />
        <rect id="XMLID_5_" x="52.7" y="1557.6" class="st1" width="794.9" height="242.5" />
        <ellipse id="XMLID_3_" class="st2" cx="457.7" cy="1686.3" rx="32.7" ry="32.2" />
        <rect id="XMLID_7_" x="47.6" y="1273" class="st1" width="794.9" height="242.5" />
        <ellipse id="XMLID_6_" class="st2" cx="452.7" cy="1401.7" rx="32.7" ry="32.2" />
    </g>
    <g id="Monitor">
        <g id="XMLID_12_">
            <polygon id="XMLID_11_" class="st3" points="1616.1,615.6 1616.1,10.4 522.2,10.4 522.2,615.6 1040.6,615.6 1040.6,771.5 
			850.1,771.5 850.1,823.4 1295.6,823.4 1295.6,771.5 1100,771.5 1100,615.6 		" />
            <rect id="XMLID_9_" x="548.5" y="40.1" class="st4" width="1044.5" height="542" />
        </g>
        <polygon id="XMLID_10_" class="st3" points="2729.1,615.6 2729.1,10.4 1635.2,10.4 1635.2,615.6 2153.7,615.6 2153.7,771.5 
		1963.2,771.5 1963.2,823.4 2408.6,823.4 2408.6,771.5 2213.1,771.5 2213.1,615.6 	" />
        <rect id="XMLID_8_" x="1661.6" y="40.1" class="st4" width="1044.5" height="542" />
        <path id="XMLID_14_" class="st5"
            d="M134.3,616.9c5.4-4.2,7.5-11.9,6-18.6s-6.1-12.4-11.8-16.2c-3.3-2.2-7.1-3.9-10-6.6
		c-5.1-4.7-7.1-12.3-5.7-19.1s6.2-12.7,12.2-16.1c2.5-1.4,5.3-2.5,7.4-4.5c4.7-4.5,4.3-12.3,1.6-18.3c-2.7-6-7.1-11-9.8-17" />
        <path id="XMLID_15_" class="st5" d="M191.2,609c-3.2-7,0.8-16.4,8.1-18.9c1.6-0.5,3.4-0.8,4.6-2c1.2-1.1,1.7-2.7,1.8-4.3
		c0.3-5.9-3.9-11-8.4-14.8c-4.4-3.9-9.5-7.4-12-12.8c-2-4.3-1.9-9.3-1.8-14.1c0.1-4.6,0.8-10.2,5.1-11.9c1.4-0.6,3-0.6,4.3-1.4
		c1.9-1.1,2.7-3.3,3.1-5.5c1.7-9.1-3.2-19.1-11.4-23.4" />
        <path id="XMLID_16_" class="st5"
            d="M255,620.6c-6-9.8-4.1-23.8,4.3-31.7c2.4-2.3,5.4-4.2,6.5-7.3c1.6-4.1-0.7-8.7-3.6-12.1
		c-2.9-3.4-6.4-6.3-8.2-10.3c-2.4-5.5-0.6-12.6,4.2-16.4c1-0.8,2.1-1.4,2.8-2.5c0.4-0.8,0.6-1.7,0.7-2.6c0.9-7.4-0.4-15.1-3.5-21.9" />
        <g id="XMLID_17_">
            <path id="XMLID_18_" class="st6" d="M279.3,691.2h-6.5v94.9h6.5C342.6,786.2,342.6,691.2,279.3,691.2z" />
            <path id="XMLID_24_" class="st7" d="M282.2,678h-9.4v-39.6H124.3v185.6h148.5v-23.5h9.4C363.9,800.5,363.9,678,282.2,678z
			 M279.3,786.2h-6.5v-94.9h6.5C342.6,691.2,342.6,786.2,279.3,786.2z" />
        </g>
    </g>
    <g id="Mouse">
        <path id="XMLID_28_" class="st8" d="M2641.9,823.4c0-0.2,0-0.4,0-0.6c0-23.6-24.1-42.7-53.8-42.7c-29.7,0-53.8,19.1-53.8,42.7
		c0,0.2,0,0.4,0,0.6H2641.9z" />
    </g>
    <g id="Computer">
        <rect id="XMLID_25_" x="922.7" y="1314.6" class="st9" width="297" height="534.6" />
        <rect id="XMLID_26_" x="945" y="1346.8" class="st10" width="250" height="54.4" />
        <rect id="XMLID_27_" x="922.7" y="1609.1" class="st11" width="297" height="17.3" />
        <circle id="XMLID_29_" class="st11" cx="1180.6" cy="1436" r="10.7" />
        <rect id="XMLID_30_" x="1167.1" y="1565.8" class="st12" width="26.9" height="14.8" />
        <rect id="XMLID_32_" x="1167.1" y="1541.1" class="st12" width="26.9" height="14.8" />
        <rect id="XMLID_34_" x="1134" y="1566.1" class="st12" width="26.9" height="14.8" />
        <rect id="XMLID_33_" x="1134" y="1541.4" class="st12" width="26.9" height="14.8" />
    </g>
    <g id="Keyboard">
        <rect id="XMLID_35_" x="1439.1" y="770.9" class="st8" width="727.6" height="51" />
    </g>
    <g id="Chair">
        <path id="XMLID_13_" class="st13" d="M2219.7,1492.3H1646c-6.6,0-12-5.4-12-12v-815c0-6.6,5.4-12,12-12h573.7c6.6,0,12,5.4,12,12
		v815C2231.7,1486.9,2226.3,1492.3,2219.7,1492.3z" />
        <rect id="XMLID_19_" x="1719.4" y="1492.3" class="st8" width="55.7" height="356.7" />
        <rect id="XMLID_21_" x="2094.3" y="1492.3" class="st8" width="55.7" height="356.7" />
        <g id="XMLID_179_">
        </g>
        <g id="XMLID_180_">
        </g>
        <g id="XMLID_181_">
        </g>
        <g id="XMLID_182_">
        </g>
        <g id="XMLID_183_">
        </g>
        <g id="XMLID_184_">
        </g>
    </g>
</svg>