<?xml version="1.0" encoding="utf-8"?>
<!-- Generator: Adobe Illustrator 19.0.0, SVG Export Plug-In . SVG Version: 6.00 Build 0)  -->
<svg version="1.1" id="Layer_1" xmlns="http://www.w3.org/2000/svg" xmlns:xlink="http://www.w3.org/1999/xlink" x="0px" y="0px"
	 viewBox="0 0 576 199" style="enable-background:new 0 0 576 199;" xml:space="preserve">
<style type="text/css">
	.st0{fill:#FBB040;}
</style>
<g id="XMLID_2_">
	<path id="XMLID_79_" class="st0" d="M56.2,2.5c0.4,0,0.7,0.2,0.8,0.6l40.6,97.7c0.1,0.3,0.1,0.6-0.1,0.8c-0.2,0.3-0.4,0.4-0.8,0.4
		H85.7c-0.4,0-0.7-0.2-0.8-0.6L69,63.2H33.8l-15.9,38.3c-0.1,0.4-0.4,0.6-0.8,0.6H6c-0.3,0-0.6-0.1-0.8-0.4
		c-0.2-0.3-0.2-0.6-0.1-0.8L45.7,3c0.2-0.4,0.5-0.6,0.8-0.6H56.2z M63.9,51.1L51.4,20.9L38.9,51.1H63.9z"/>
	<path id="XMLID_82_" class="st0" d="M184.5,100.7c0.1,0.3,0.1,0.6-0.1,0.9c-0.1,0.3-0.4,0.4-0.8,0.4h-12.3c-0.4,0-0.6-0.2-0.8-0.5
		L147.2,59l0.1-0.1h-17.1v41.9c0,0.6-0.3,0.9-0.9,0.9h-10.8c-0.6,0-0.9-0.3-0.9-0.9V3.5c0-0.6,0.3-0.9,0.9-0.9h36.5
		c7.9,0,14.7,2.8,20.2,8.5s8.2,12.5,8,20.5c-0.2,6.4-2.4,12.1-6.6,17.1c-4.1,4.8-9.3,8-15.5,9.4L184.5,100.7z M154.9,46.3
		c4.3,0,8-1.5,11-4.6s4.6-6.7,4.6-11c0-4.3-1.5-8-4.6-11c-3.1-3-6.7-4.5-11-4.5h-24.8v31.1H154.9z"/>
	<path id="XMLID_85_" class="st0" d="M265.9,2.7c0.6,0,0.9,0.3,0.9,0.9v10.8c0,0.6-0.3,0.9-0.9,0.9h-26v85.8c0,0.6-0.3,0.9-0.9,0.9
		h-10.8c-0.6,0-0.9-0.3-0.9-0.9V15.3h-26.1c-0.6,0-0.9-0.3-0.9-0.9V3.6c0-0.6,0.3-0.9,0.9-0.9H265.9z"/>
	<path id="XMLID_87_" class="st0" d="M329.9,71.7c0,1.6-0.1,2.8-0.1,3.6c0,4,0.3,8.9,0.8,14.5c0.2,2.1,0.4,4.2,0.7,6.4
		c0.2,1.6,0.4,3.2,0.6,4.8c0.1,0.7-0.2,1-0.9,1h-10c-0.5,0-0.8-0.3-0.9-0.8c-0.2-1.7-0.4-3.4-0.6-5.2c-4.7,3.9-10.3,5.9-16.8,5.9
		c-6.7,0-11.9-1.7-15.6-5.1c-3.7-3.5-5.6-8.3-5.6-14.4c0-5.5,2-9.9,5.9-13.4c6-5.3,16.2-7.5,30.6-6.6c-0.3-4.1-1.3-7-2.8-8.6
		c-1.6-1.7-4.5-2.6-8.5-2.6c-3.1,0-5.8,0.5-8.4,1.6c-0.9,0.4-1.8,0.8-2.6,1.3c-0.6,0.4-1.1,0.7-1.6,1.1c-0.4,0.4-0.8,0.4-1.2,0
		l-7.3-6.7c-0.5-0.5-0.5-0.9,0-1.3c0.3-0.3,0.7-0.6,1-0.9c0.5-0.4,1-0.8,1.5-1.2c1.3-0.9,2.8-1.8,4.4-2.5c4.3-2,9-3.1,14.2-3.1
		c7.3,0,13,2,16.9,6c2.7,2.8,4.6,6.6,5.5,11.2c0.6,3.1,0.9,7.3,0.8,12.5c0,0.7,0,1.1,0,1.1S330,70.9,329.9,71.7z M302.8,90.3
		c1.3,0,2.7-0.2,4-0.5c1.7-0.5,3.3-1.2,4.6-2.1c3.7-2.7,5.9-7.2,6.7-13.5c-2.1-0.1-4.1-0.2-6-0.2c-8.4,0-14,1.3-16.9,3.9
		c-1.2,1.1-1.9,2.6-1.9,4.6c0,2.5,0.5,4.3,1.5,5.4C296.2,89.5,298.9,90.3,302.8,90.3z"/>
	<path id="XMLID_90_" class="st0" d="M395.9,39.9c0.2-0.4,0.5-0.6,0.8-0.6h10.9c0.3,0,0.6,0.1,0.8,0.4c0.2,0.2,0.2,0.5,0.1,0.8
		L374,126.3c-0.1,0.4-0.4,0.6-0.8,0.6h-10.9c-0.3,0-0.6-0.1-0.7-0.4c-0.2-0.2-0.2-0.5-0.1-0.8L372,99.4l-24.3-58.8
		c-0.1-0.3-0.1-0.6,0.1-0.8c0.2-0.3,0.4-0.4,0.8-0.4h10.9c0.4,0,0.7,0.2,0.8,0.6l18.2,43.8L395.9,39.9z"/>
	<path id="XMLID_92_" class="st0" d="M428.3,102c-0.6,0-0.9-0.3-0.9-0.9V3.4c0-0.6,0.3-0.9,0.9-0.9h10.1c0.6,0,0.9,0.3,0.9,0.9v97.7
		c0,0.6-0.3,0.9-0.9,0.9H428.3z"/>
	<path id="XMLID_94_" class="st0" d="M488.9,39.5c8.6,0,16,3,22,9.1c6.1,6.1,9.2,13.5,9.2,22c0,8.6-3.1,16-9.2,22.1
		c-6.1,6.1-13.4,9.1-22,9.1c-8.6,0-15.9-3-22-9.1c-6.1-6.1-9.2-13.5-9.2-22.1c0-8.6,3.1-15.9,9.2-22
		C472.9,42.5,480.3,39.5,488.9,39.5z M488.9,90.1c5.4,0,10-1.9,13.8-5.8c3.8-3.8,5.8-8.4,5.8-13.8c0-5.4-1.9-9.9-5.8-13.7
		c-3.8-3.8-8.4-5.8-13.8-5.8c-5.4,0-9.9,1.9-13.7,5.8c-3.8,3.8-5.8,8.4-5.8,13.7c0,5.4,1.9,10,5.8,13.8
		C478.9,88.2,483.5,90.1,488.9,90.1z"/>
	<path id="XMLID_97_" class="st0" d="M554.9,43.8c4.1-2.6,8.6-3.9,13.4-3.9c1.4,0,2.8,0.1,4.2,0.3c0.6,0.1,0.9,0.4,0.8,1l-2,9.7
		c-0.1,0.6-0.5,0.8-1,0.7c-0.6-0.1-1.2-0.1-1.9-0.1c-3.4,0-6.4,1.2-8.9,3.5c-2.5,2.3-4,5.1-4.4,8.5v37.6c0,0.6-0.3,0.9-0.9,0.9
		h-10.1c-0.6,0-0.9-0.3-0.9-0.9V40.4c0-0.6,0.3-0.9,0.9-0.9H554c0.6,0,0.9,0.3,0.9,0.9V43.8z"/>
</g>
<g id="XMLID_1_">
</g>
<g id="XMLID_128_">
	<path id="XMLID_43_" d="M37,180.6c0,0.3-0.2,0.4-0.4,0.4h-2.1c-0.1,0-0.2-0.1-0.3-0.2l-12.4-19.2L9.4,180.8
		c-0.1,0.1-0.2,0.2-0.4,0.2H6.9c-0.3,0-0.4-0.1-0.4-0.4l-2.8-41.2c0-0.3,0.1-0.4,0.4-0.4h2c0.3,0,0.4,0.1,0.4,0.4l2.5,37l12.2-19
		c0.1-0.1,0.2-0.2,0.3-0.2l0.4,0c0.2,0,0.3,0.1,0.4,0.2l12.2,18.9l2.5-36.9c0-0.3,0.2-0.4,0.4-0.4h2c0.3,0,0.4,0.1,0.4,0.4L37,180.6
		z"/>
	<path id="XMLID_45_" d="M58,177.3c-2.5-2.5-3.8-5.5-3.8-9c0-3.6,1.2-6.6,3.6-9.1c2.4-2.5,5.3-3.7,8.8-3.7c3.4,0,6.2,1.3,8.6,3.7
		c2.4,2.4,3.5,5.4,3.5,8.8v0.6c0,0.2-0.1,0.4-0.4,0.4l-21,1.8c0.6,2.1,1.8,3.9,3.5,5.2c1.8,1.4,3.8,2.1,6.1,2.1
		c1.7,0,3.3-0.4,4.8-1.3c1.5-0.8,2.7-2,3.6-3.4c0.1-0.2,0.3-0.3,0.6-0.1l1.7,1c0.2,0.2,0.3,0.4,0.1,0.6c-1.2,1.9-2.7,3.3-4.7,4.4
		c-1.9,1.1-4,1.6-6.2,1.6C63.5,181,60.5,179.8,58,177.3z M59.8,161.1c-1.8,1.9-2.7,4.2-2.8,7.1l18.9-1.6c-0.3-2.4-1.3-4.4-3-5.9
		c-1.7-1.5-3.9-2.3-6.4-2.3C63.8,158.3,61.6,159.2,59.8,161.1z"/>
	<path id="XMLID_48_" d="M107.5,155.6c2.9,0.3,5.5,1.5,7.6,3.6c2.1,2.1,3.4,4.6,3.7,7.6c0.2,1.9,0,3.7-0.6,5.5
		c-0.5,1.7-1.4,3.2-2.6,4.5c-1.2,1.3-2.6,2.4-4.2,3.1c-1.7,0.8-3.4,1.1-5.3,1.1c-2,0-3.8-0.4-5.6-1.3c-1.7-0.8-3.2-2-4.4-3.5v4.4
		c0,0.3-0.1,0.4-0.4,0.4h-1.9c-0.3,0-0.4-0.1-0.4-0.4v-41.2c0-0.3,0.1-0.4,0.4-0.4h1.9c0.3,0,0.4,0.1,0.4,0.4v20.9
		c1.3-1.7,3-2.9,4.9-3.8C103.2,155.7,105.3,155.4,107.5,155.6z M106.2,178.2c2.8,0,5.1-1,7.1-2.9c2-2,2.9-4.3,2.9-7
		c0-2.8-1-5.1-2.9-7.1c-2-2-4.3-2.9-7.1-2.9c-2.7,0-5.1,1-7,2.9c-2,2-2.9,4.3-2.9,7.1c0,2.7,1,5.1,2.9,7
		C101.1,177.3,103.4,178.2,106.2,178.2z"/>
	<path id="XMLID_51_" d="M159.7,181c-0.3,0-0.4-0.1-0.4-0.4v-41.2c0-0.3,0.1-0.4,0.4-0.4h12.7c2.8,0,5.5,0.5,8.1,1.6
		c2.5,1,4.7,2.5,6.6,4.4c1.9,1.9,3.4,4.1,4.5,6.6c1.1,2.6,1.7,5.2,1.7,8c0.1,2.9-0.5,5.7-1.6,8.3c-1.1,2.5-2.6,4.8-4.6,6.8
		c-2,2-4.3,3.5-6.9,4.6c-2.7,1.1-5.4,1.7-8.3,1.7H159.7z M162.1,178.2h10.4c2.5,0,4.9-0.5,7.1-1.4c2.2-0.9,4.1-2.2,5.8-3.9
		c1.7-1.7,3-3.6,3.9-5.8c1-2.3,1.4-4.6,1.4-7.1c0-2.5-0.5-4.8-1.4-7.1c-0.9-2.2-2.2-4.1-3.9-5.8c-1.7-1.7-3.6-3-5.8-3.9
		c-2.3-1-4.6-1.4-7.1-1.4h-10.4V178.2z"/>
	<path id="XMLID_54_" d="M213.2,177.3c-2.5-2.5-3.8-5.5-3.8-9c0-3.6,1.2-6.6,3.6-9.1c2.4-2.5,5.3-3.7,8.8-3.7c3.4,0,6.2,1.3,8.6,3.7
		c2.4,2.4,3.5,5.4,3.5,8.8v0.6c0,0.2-0.1,0.4-0.4,0.4l-21,1.8c0.6,2.1,1.8,3.9,3.5,5.2c1.8,1.4,3.8,2.1,6.1,2.1
		c1.7,0,3.3-0.4,4.8-1.3c1.5-0.8,2.7-2,3.6-3.4c0.1-0.2,0.3-0.3,0.6-0.1l1.7,1c0.2,0.2,0.3,0.4,0.1,0.6c-1.2,1.9-2.7,3.3-4.7,4.4
		c-1.9,1.1-4,1.6-6.2,1.6C218.6,181,215.6,179.8,213.2,177.3z M214.9,161.1c-1.8,1.9-2.7,4.2-2.8,7.1l18.9-1.6
		c-0.3-2.4-1.3-4.4-3-5.9c-1.7-1.5-3.9-2.3-6.4-2.3C219,158.3,216.7,159.2,214.9,161.1z"/>
	<path id="XMLID_57_" d="M259.1,180.7c-0.1,0.2-0.2,0.3-0.4,0.3h-1.8c-0.2,0-0.3-0.1-0.4-0.3l-9.1-24.6c-0.1-0.1,0-0.3,0-0.4
		c0.1-0.1,0.2-0.2,0.4-0.2h2.1c0.2,0,0.3,0.1,0.4,0.3l7.6,20.4l7.6-20.4c0.1-0.2,0.2-0.3,0.4-0.3h2.1c0.2,0,0.3,0.1,0.4,0.2
		c0.1,0.1,0.1,0.2,0,0.4L259.1,180.7z"/>
	<path id="XMLID_59_" d="M284.2,177.3c-2.5-2.5-3.8-5.5-3.8-9c0-3.6,1.2-6.6,3.6-9.1c2.4-2.5,5.3-3.7,8.8-3.7c3.4,0,6.2,1.3,8.6,3.7
		c2.4,2.4,3.5,5.4,3.5,8.8v0.6c0,0.2-0.1,0.4-0.4,0.4l-21,1.8c0.6,2.1,1.8,3.9,3.5,5.2c1.8,1.4,3.8,2.1,6.1,2.1
		c1.7,0,3.3-0.4,4.8-1.3c1.5-0.8,2.7-2,3.6-3.4c0.1-0.2,0.3-0.3,0.6-0.1l1.7,1c0.2,0.2,0.3,0.4,0.1,0.6c-1.2,1.9-2.7,3.3-4.7,4.4
		c-1.9,1.1-4,1.6-6.2,1.6C289.6,181,286.6,179.8,284.2,177.3z M286,161.1c-1.8,1.9-2.7,4.2-2.8,7.1l18.9-1.6c-0.3-2.4-1.3-4.4-3-5.9
		c-1.7-1.5-3.9-2.3-6.4-2.3C290,158.3,287.7,159.2,286,161.1z"/>
	<path id="XMLID_62_" d="M322.6,181c-0.3,0-0.4-0.1-0.4-0.4v-41.2c0-0.3,0.1-0.4,0.4-0.4h2c0.3,0,0.4,0.1,0.4,0.4v41.2
		c0,0.3-0.1,0.4-0.4,0.4H322.6z"/>
	<path id="XMLID_64_" d="M343.7,177.3c-2.5-2.5-3.7-5.5-3.7-9c0-3.5,1.2-6.5,3.7-9c2.5-2.5,5.5-3.7,9-3.7c3.5,0,6.5,1.2,9,3.7
		c2.5,2.5,3.8,5.5,3.8,9c0,3.5-1.3,6.5-3.8,9c-2.5,2.5-5.5,3.7-9,3.7C349.2,181,346.2,179.8,343.7,177.3z M345.7,161.3
		c-1.9,1.9-2.9,4.3-2.9,7c0,2.7,1,5.1,2.9,7c2,2,4.3,2.9,7.1,2.9c2.7,0,5.1-1,7-2.9c2-2,2.9-4.3,2.9-7c0-2.8-1-5.1-2.9-7
		c-2-2-4.3-2.9-7-2.9C350,158.3,347.6,159.3,345.7,161.3z"/>
	<path id="XMLID_67_" d="M395.3,155.5c3.6,0,6.6,1.3,9.1,3.8c2.5,2.5,3.8,5.5,3.8,9c0,3.5-1.3,6.5-3.8,9c-2.5,2.5-5.6,3.8-9.1,3.8
		c-2,0-3.9-0.4-5.7-1.3c-1.7-0.8-3.2-2-4.4-3.5v20.9c0,0.3-0.1,0.4-0.4,0.4h-2c-0.3,0-0.4-0.1-0.4-0.4v-41.1c0-0.3,0.1-0.4,0.4-0.4
		h2c0.3,0,0.4,0.1,0.4,0.4v4.4c1.2-1.5,2.7-2.7,4.4-3.5C391.3,156,393.2,155.5,395.3,155.5z M395.3,178.2c2.8,0,5.2-1,7.1-2.9
		c2-2,3-4.3,3-7.1c0-2.7-1-5.1-3-7c-2-2-4.4-2.9-7.1-2.9c-2.8,0-5.2,1-7.1,2.9c-2,2-3,4.3-3,7c0,2.8,1,5.1,3,7.1
		C390.1,177.2,392.5,178.2,395.3,178.2z"/>
	<path id="XMLID_70_" d="M461.3,180.5c0,0.3-0.1,0.4-0.4,0.4h-2c-0.3,0-0.4-0.1-0.4-0.4v-1c0-1.7,0-3.9,0-6.4v-0.8v-0.8
		c0-0.6,0-1.1,0-1.6c0-1.2,0-2.4,0-3.5v-0.9c0-0.3,0-0.6-0.1-0.8c0-0.5-0.1-1-0.3-1.6c-0.4-1-0.9-2-1.7-2.8
		c-0.7-0.8-1.6-1.4-2.7-1.8c-0.5-0.2-1-0.3-1.5-0.4h-0.2l-0.2,0l-0.2,0c-0.1,0-0.1,0-0.2,0h-0.2h0h0h-0.1h-0.2h-0.2
		c-1,0.1-1.9,0.3-2.8,0.8c-0.8,0.4-1.5,0.9-2.1,1.6c-0.5,0.6-0.9,1.2-1.3,1.9c-0.3,0.5-0.4,1.1-0.6,1.6c-0.1,0.2-0.1,0.4-0.1,0.6
		c0,0.1,0,0.2,0,0.2v0.2c0,0.2,0,0.3,0,0.4l0,0.8v0c0,0.5,0,1.1,0,1.8c0,0.4,0,1,0,1.7v0.8l0,0.8c0,0.6,0,1.1,0,1.5
		c0,2.6,0,4.7,0,6.4v1c0,0.3-0.1,0.4-0.4,0.4h-2c-0.3,0-0.4-0.1-0.4-0.4v-1c0-1.7,0-3.9,0-6.4c0-0.6,0-1.7,0-3.1c0-0.7,0-1.3,0-1.7
		c0-0.6,0-1.2,0-1.8l0-0.9c0-0.3,0-0.6-0.1-0.8c-0.1-0.5-0.2-1-0.3-1.6c-0.4-1-0.9-2-1.7-2.8c-0.7-0.8-1.6-1.4-2.7-1.8
		c-0.5-0.2-1-0.3-1.6-0.4h-0.2l-0.2,0l-0.2,0c-0.1,0-0.1,0-0.2,0h-0.2h-0.1h-0.1h-0.4c-1,0.1-1.9,0.3-2.8,0.8
		c-0.8,0.4-1.5,0.9-2.1,1.6c-0.5,0.6-0.9,1.2-1.3,1.9c-0.3,0.5-0.5,1.1-0.6,1.6c0,0.2-0.1,0.4-0.1,0.6l0,0.2l0,0.2
		c0,0.2,0,0.3,0,0.4l-0.1,1.2v13.7c0,0.3-0.1,0.4-0.4,0.4h-1.9c-0.3,0-0.4-0.1-0.4-0.4v-24.7c0-0.3,0.1-0.4,0.4-0.4h1.9
		c0.3,0,0.4,0.1,0.4,0.4v3.4l0.2-0.3c0.8-0.9,1.7-1.6,2.8-2.2c1.2-0.6,2.5-1,3.8-1.1l0.3,0h0.3h0.1h0.1h0.2c0.1,0,0.1,0,0.3,0l0.3,0
		l0.3,0l0.3,0c0.7,0.1,1.4,0.3,2.1,0.5c1.4,0.5,2.6,1.3,3.7,2.4c0.6,0.7,1.2,1.4,1.6,2.2c0.4-0.7,0.9-1.4,1.4-2
		c0.8-0.9,1.7-1.6,2.8-2.2c1.2-0.6,2.5-1,3.8-1.1l0.3,0h0.3h0.1h0.1h0.2c0,0,0.1,0,0.2,0l0.3,0l0.3,0l0.3,0c0.7,0.1,1.4,0.3,2.1,0.5
		c1.4,0.5,2.7,1.3,3.7,2.4c1,1.1,1.8,2.3,2.3,3.7c0.2,0.7,0.4,1.4,0.5,2.1c0,0.3,0.1,0.7,0.1,1.1v0.9c0,0.8,0,2,0,3.5v0.8v0.8
		c0,0.6,0,1.1,0,1.5c0,2.6,0,4.7,0,6.4V180.5z"/>
	<path id="XMLID_72_" d="M478.8,177.3c-2.5-2.5-3.8-5.5-3.8-9c0-3.6,1.2-6.6,3.6-9.1c2.4-2.5,5.3-3.7,8.8-3.7c3.4,0,6.2,1.3,8.6,3.7
		c2.4,2.4,3.5,5.4,3.5,8.8v0.6c0,0.2-0.1,0.4-0.4,0.4l-21,1.8c0.6,2.1,1.8,3.9,3.5,5.2c1.8,1.4,3.8,2.1,6.1,2.1
		c1.7,0,3.3-0.4,4.8-1.3c1.5-0.8,2.7-2,3.6-3.4c0.1-0.2,0.3-0.3,0.6-0.1l1.7,1c0.2,0.2,0.3,0.4,0.1,0.6c-1.2,1.9-2.7,3.3-4.7,4.4
		c-1.9,1.1-4,1.6-6.2,1.6C484.2,181,481.3,179.8,478.8,177.3z M480.6,161.1c-1.8,1.9-2.7,4.2-2.8,7.1l18.9-1.6
		c-0.3-2.4-1.3-4.4-3-5.9c-1.7-1.5-3.9-2.3-6.4-2.3C484.6,158.3,482.4,159.2,480.6,161.1z"/>
	<path id="XMLID_75_" d="M536.8,180.6c0,0.3-0.1,0.4-0.4,0.4h-2c-0.3,0-0.4-0.1-0.4-0.4v-1c0-1.7,0-3.9,0-6.4v-0.7v-0.8
		c0-0.6,0-1.1,0-1.6c0-1.2,0-2.4,0-3.5v-0.9c0-0.3,0-0.6,0-0.8c-0.1-0.5-0.2-1-0.4-1.6c-0.4-1.1-0.9-2-1.7-2.8
		c-0.7-0.8-1.6-1.4-2.7-1.8c-0.5-0.2-1-0.3-1.6-0.4l-0.2,0l-0.2,0l-0.2,0c-0.1,0-0.1,0-0.2,0h-0.2h-0.1h-0.1h-0.2h-0.2
		c-1,0.1-2,0.3-2.8,0.8c-0.8,0.4-1.5,0.9-2.1,1.6c-0.5,0.5-0.9,1.2-1.3,1.8c-0.3,0.5-0.4,1.1-0.6,1.6c0,0.2-0.1,0.4-0.1,0.6l0,0.3
		l0,0.2c0,0.2,0,0.3,0,0.4l0,0.6v14.2c0,0.3-0.1,0.4-0.4,0.4h-2c-0.3,0-0.4-0.1-0.4-0.4v-24.7c0-0.3,0.1-0.4,0.4-0.4h2
		c0.3,0,0.4,0.1,0.4,0.4v3.3l0.2-0.2c0.8-0.9,1.8-1.6,2.8-2.2c1.2-0.6,2.5-1,3.8-1.1l0.3,0h0.3h0.3h0.2c0.1,0,0.1,0,0.3,0l0.3,0
		l0.3,0l0.3,0c0.7,0.1,1.4,0.3,2.1,0.5c1.4,0.5,2.7,1.3,3.7,2.4c1.1,1.1,1.8,2.3,2.3,3.8c0.2,0.7,0.4,1.4,0.5,2.1
		c0,0.3,0.1,0.7,0.1,1.1v0.9c0,0.5,0,1.1,0,1.8c0,0.4,0,1,0,1.7v0.8v0.8c0,0.6,0,1.1,0,1.5c0,2.6,0,4.7,0,6.4V180.6z"/>
	<path id="XMLID_77_" d="M566.8,179.2c0.2,0.2,0.1,0.4-0.1,0.6c-1.3,0.9-2.6,1.3-3.9,1.3c-0.9,0-1.8-0.2-2.6-0.6
		c-1.1-0.5-1.9-1.3-2.5-2.4c-0.6-1.1-0.9-2.3-0.9-3.7v-15.9h-3.5c-0.3,0-0.4-0.1-0.4-0.4v-2c0-0.3,0.1-0.4,0.4-0.4h3.5l0-7.2
		c0-0.3,0.1-0.4,0.4-0.4h2c0.3,0,0.4,0.1,0.4,0.4v7.2h4c0.3,0,0.4,0.1,0.4,0.4v2c0,0.3-0.1,0.4-0.4,0.4h-4v15.9c0,1.8,0.6,3,1.8,3.7
		c1.1,0.6,2.3,0.4,3.6-0.4c0.2-0.1,0.4-0.1,0.6,0.1L566.8,179.2z"/>
</g>
<g id="XMLID_42_">
</g>
<g id="XMLID_99_">
</g>
<g id="XMLID_100_">
</g>
<g id="XMLID_101_">
</g>
<g id="XMLID_102_">
</g>
<g id="XMLID_103_">
</g>
</svg>
