<?xml version="1.0" encoding="UTF-8" standalone="no"?>
<svg
   version="1.1"
   x="0px"
   y="0px"
   width="540"
   height="210"
   viewBox="0 0 18 7"
   id="svg267"
   xmlns="http://www.w3.org/2000/svg"
   xmlns:svg="http://www.w3.org/2000/svg">
  <defs
     id="defs271" />
  <path
     fill="#cb3837"
     d="M 0,0 H 18 V 6 H 9 V 7 H 5 V 6 H 0 Z M 1,5 H 3 V 2 H 4 V 5 H 5 V 1 H 1 Z M 6,1 V 6 H 8 V 5 h 2 V 1 Z M 8,2 H 9 V 4 H 8 Z m 3,-1 v 4 h 2 V 2 h 1 v 3 h 1 V 2 h 1 v 3 h 1 V 1 Z"
     id="path259" />
  <polygon
     fill="#ffffff"
     points="4,5 5,5 5,1 1,1 1,5 3,5 3,2 4,2 "
     id="polygon261" />
  <path
     fill="#ffffff"
     d="M 6,1 V 6 H 8 V 5 h 2 V 1 Z M 9,4 H 8 V 2 h 1 z"
     id="path263" />
  <polygon
     fill="#ffffff"
     points="14,2 14,5 15,5 15,2 16,2 16,5 17,5 17,1 11,1 11,5 13,5 13,2 "
     id="polygon265" />
</svg>
